<?xml version="1.0" standalone="no"?>
<!DOCTYPE svg PUBLIC "-//W3C//DTD SVG 20010904//EN"
 "http://www.w3.org/TR/2001/REC-SVG-20010904/DTD/svg10.dtd">
<svg version="1.0" xmlns="http://www.w3.org/2000/svg"
 width="602.000000pt" height="602.000000pt" viewBox="0 0 602.000000 602.000000"
 preserveAspectRatio="xMidYMid meet">
<metadata>
Created by potrace 1.11, written by Peter Selinger 2001-2013
</metadata>
<g transform="translate(0.000000,602.000000) scale(0.100000,-0.100000)"
fill="#000000" stroke="none">
<path d="M2780 5883 c-30 -3 -111 -15 -200 -28 -27 -5 -32 -6 -133 -30 -170
-40 -429 -155 -587 -261 -408 -273 -713 -668 -846 -1099 -14 -44 -27 -88 -29
-98 -2 -10 -6 -26 -9 -35 -5 -17 -11 -46 -21 -99 -11 -60 -16 -92 -21 -139 -2
-27 -7 -67 -9 -89 -10 -93 -5 -346 10 -450 3 -22 8 -58 10 -80 11 -82 68 -293
107 -395 78 -200 199 -406 335 -566 60 -71 229 -243 281 -285 65 -54 187 -142
252 -182 224 -137 516 -240 773 -272 53 -7 57 -10 58 -34 0 -14 1 -120 2 -236
l1 -210 -284 -5 c-244 -4 -289 -7 -316 -22 -152 -83 -166 -290 -26 -383 55
-36 99 -41 375 -40 l247 2 1 -26 c0 -14 2 -145 3 -291 2 -184 6 -274 15 -295
46 -111 177 -173 281 -131 44 17 90 56 118 99 l27 42 2 280 c1 154 2 289 2
301 1 20 5 20 254 20 207 -1 261 2 300 15 156 53 201 246 84 363 -62 62 -87
66 -381 66 -237 0 -256 1 -257 18 -3 127 0 444 5 449 4 4 14 8 24 9 9 1 40 5
67 10 28 4 61 8 75 10 78 7 329 81 427 125 252 112 449 247 638 434 233 230
382 455 490 734 33 85 83 258 91 316 3 17 9 53 14 80 31 166 33 475 5 667 -29
196 -87 388 -172 566 -216 455 -625 844 -1088 1035 -244 100 -480 144 -779
144 -99 0 -197 -1 -216 -4z m435 -448 c11 -3 38 -7 60 -10 303 -42 622 -210
866 -454 178 -179 293 -355 379 -578 43 -112 43 -112 -37 -111 -370 2 -908 -5
-948 -13 -171 -31 -321 -176 -361 -345 -9 -39 -12 -262 -12 -866 -1 -447 -1
-822 -1 -833 -1 -14 -8 -21 -24 -23 l-23 -1 0 1087 1 1087 24 38 c13 21 41 50
63 65 39 25 46 26 198 28 l157 2 39 -54 c71 -98 163 -144 285 -141 116 3 208
56 276 158 13 20 26 44 28 55 2 10 9 36 14 58 12 48 6 129 -13 185 -47 132
-167 214 -316 214 -119 0 -236 -67 -296 -169 l-26 -44 -152 0 c-104 0 -170 -5
-211 -15 -164 -43 -298 -179 -336 -341 -8 -35 -11 -361 -12 -1131 l0 -1083
-25 3 c-13 1 -26 6 -28 12 -2 5 -5 251 -7 545 l-3 535 -23 60 c-34 84 -60 123
-123 180 -106 97 -174 117 -394 119 l-162 1 -18 28 c-26 40 -116 103 -176 123
-67 22 -178 15 -241 -15 -239 -116 -272 -424 -62 -583 93 -71 231 -88 335 -41
65 29 135 96 165 158 l27 54 142 -2 c115 -2 147 -5 168 -19 37 -24 76 -78 82
-113 4 -23 8 -581 6 -942 l0 -43 -72 26 c-225 80 -411 204 -601 397 -285 290
-429 593 -463 979 -13 147 -7 320 17 453 5 33 12 74 15 90 14 82 100 302 157
403 12 21 13 19 15 -33 2 -111 60 -216 155 -282 85 -57 195 -71 303 -38 48 15
71 31 121 81 l62 63 172 1 c120 1 187 6 223 17 165 48 290 180 326 343 5 25
10 191 10 368 l0 324 128 -7 c70 -3 136 -8 147 -10z m-551 -312 c0 -158 -4
-299 -8 -313 -14 -43 -57 -92 -100 -111 -34 -15 -66 -19 -181 -19 l-140 0 -19
45 c-60 146 -254 230 -410 177 l-60 -20 100 96 c122 120 136 131 253 209 114
76 243 139 372 182 89 29 178 51 189 45 3 -1 5 -132 4 -291z m1255 -437 c5 -6
12 -24 15 -40 6 -33 -30 -76 -64 -76 -31 0 -71 44 -66 72 3 13 5 26 5 30 1 4
13 14 27 21 29 15 68 12 83 -7z m-1953 -82 c10 -38 0 -68 -27 -83 -60 -33
-123 36 -85 94 27 42 101 35 112 -11z m2650 -618 c3 -12 6 -53 7 -91 l2 -70
-376 -2 c-354 -1 -379 -3 -438 -23 -154 -52 -270 -171 -311 -320 -10 -33 -13
-195 -14 -629 l-1 -584 -22 -8 c-20 -7 -23 -5 -24 14 -4 189 1 1581 6 1599 11
36 53 86 88 105 49 26 88 28 600 29 477 1 477 1 483 -20z m-2804 -456 c45 -34
25 -104 -32 -113 -33 -6 -59 9 -71 40 -17 44 13 82 72 92 4 1 18 -8 31 -19z
m2782 -29 c-11 -76 -71 -264 -114 -358 -101 -218 -252 -410 -460 -585 -67 -56
-250 -179 -259 -174 -3 2 -6 233 -5 513 0 495 1 509 21 548 24 46 66 80 114
93 19 4 186 8 372 8 l338 0 -7 -45z"/>
</g>
</svg>
