<svg xmlns="http://www.w3.org/2000/svg" xmlns:xlink="http://www.w3.org/1999/xlink" version="1.1" x="0px" y="0px" viewBox="0 0 100 125" enable-background="new 0 0 100 100" xml:space="preserve"><g><g><path d="M52.1,99c-2,0-3.7-1.7-3.7-3.7v-8.9H40c-2,0-3.7-1.7-3.7-3.7c0-2,1.7-3.7,3.7-3.7h8.4v-7.9c-0.4,0-0.9-0.1-1.3-0.2    c-0.4-0.1-0.8-0.1-1.2-0.2c0,0,0,0,0,0c-6.8-1.2-12.9-4.4-18-9.6c-6.7-6.7-10.1-14.9-10.1-24.4c0-9.5,3.4-17.7,10.1-24.4    C34.6,5.7,42.8,2.3,52.3,2.3c9.5,0,17.7,3.4,24.4,10.1c5.5,5.5,8.8,12.1,9.8,19.6c0,0,0,0.1,0,0.1c0.2,1.5,0.3,3.1,0.3,4.7    c0,0.8,0,1.7-0.1,2.5c-0.5,8.4-3.9,15.8-10,21.9c-3.7,3.7-8,6.5-12.6,8.1c0,0,0,0,0,0l-0.7,0.3c0,0-0.1,0-0.1,0    c-1.7,0.5-3.4,1-5.2,1.2c-0.2,0-0.4,0.1-0.5,0.1c-0.6,0.1-1.2,0.2-1.8,0.2v7.9h8.1c2,0,3.7,1.7,3.7,3.7c0,2-1.7,3.7-3.7,3.7h-8.1    v8.9C55.8,97.3,54.1,99,52.1,99z M47.1,63.5c0.3,0.1,0.6,0.1,0.9,0.1c1.3,0.2,2.7,0.3,4,0.3h0.2c1.5,0,2.9-0.1,4.3-0.3    c0.1,0,0.1,0,0.2,0c0.1,0,0.1,0,0.2,0c1.4-0.2,2.8-0.5,4.1-1l0.7-0.2c3.6-1.3,6.9-3.5,9.9-6.4c4.9-4.9,7.4-10.5,7.9-17.2    c0-0.7,0.1-1.3,0.1-2c0-1.3-0.1-2.6-0.3-3.8c0,0,0-0.1,0-0.1C78.4,27,75.9,22,71.5,17.6c-5.4-5.3-11.6-7.9-19.2-7.9    c-7.6,0-13.8,2.6-19.2,7.9c-5.4,5.4-8,11.6-8,19.2c0,7.6,2.6,13.8,8,19.2C37.2,60.1,41.8,62.6,47.1,63.5z"/></g><g><path d="M52.1,69.9c-1.3,0-2.3-1-2.3-2.3V28.7c0-2.1,0.7-3.9,2.2-5.4c1.5-1.5,3.4-2.3,5.5-2.3h4.2c0.3-0.7,0.7-1.4,1.3-1.9    c1.1-1.1,2.5-1.7,4-1.7c1.5,0,2.9,0.6,4,1.6c0,0,0,0,0,0c1.1,1.1,1.6,2.5,1.6,4c0,0.4,0,0.8-0.1,1.1c-0.2,1.1-0.7,2.1-1.5,2.9    c-1.1,1.1-2.5,1.7-4,1.7c-1.5,0-2.9-0.6-4-1.7c-0.5-0.5-0.8-1-1.1-1.6h-4.4c-0.9,0-1.6,0.3-2.2,0.9c-0.6,0.6-0.9,1.3-0.9,2.2v38.9    C54.4,68.9,53.3,69.9,52.1,69.9z M65.9,23.3c0,0.3,0.1,0.5,0.3,0.7c0,0,0,0,0,0c0.2,0.2,0.4,0.3,0.8,0.3c0.3,0,0.6-0.1,0.8-0.3    c0.2-0.2,0.2-0.3,0.3-0.5c0,0,0-0.1,0-0.1c0-0.1,0-0.1,0-0.2c0-0.3-0.1-0.6-0.3-0.8c-0.2-0.2-0.5-0.3-0.8-0.3    c-0.3,0-0.6,0.1-0.8,0.3c-0.2,0.2-0.3,0.5-0.3,0.8V23.3z M57.5,69.5c-1.3,0-2.3-1-2.3-2.3V36.9c0-2.1,0.7-3.9,2.2-5.4    c1.5-1.5,3.4-2.3,5.5-2.3c0,0,0.1,0,0.1,0l20-0.1c1.2,0.1,2.2,1.1,2.2,2.3c0,1.3-1,2.3-2.3,2.3c-0.1,0-0.2,0-0.3,0l-19.7,0.1    c-0.9,0-1.5,0.3-2.2,0.9c-0.6,0.6-0.9,1.3-0.9,2.2v30.3C59.8,68.5,58.7,69.5,57.5,69.5z M46.5,69.5c-1.3,0-2.3-1-2.3-2.3V47.3    c0-0.9-0.3-1.6-0.8-2.2c-0.6-0.6-1.2-0.9-2-0.9l-3.9,0c-0.3,0.9-0.7,1.6-1.4,2.3c-1.1,1.1-2.5,1.7-4,1.7c-1.6,0-2.9-0.6-4-1.7    c-1.1-1.1-1.7-2.5-1.7-4c0-1.5,0.6-2.9,1.7-4c1.1-1.1,2.5-1.7,4-1.7c1.5,0,2.9,0.6,4,1.6c0,0,0,0,0,0c0.4,0.4,0.7,0.8,0.9,1.2    l4.4,0c2,0,3.9,0.8,5.3,2.3c0,0,0,0,0,0c1.4,1.5,2.1,3.3,2.1,5.4v19.8C48.8,68.4,47.8,69.5,46.5,69.5z M32,41.4    c-0.3,0-0.6,0.1-0.8,0.3c-0.2,0.2-0.3,0.5-0.3,0.8c0,0.3,0.1,0.5,0.3,0.8c0,0,0,0,0,0c0.2,0.2,0.4,0.3,0.8,0.3    c0.3,0,0.6-0.1,0.8-0.3c0.2-0.2,0.2-0.3,0.3-0.5c0,0,0-0.1,0-0.1c0-0.1,0-0.1,0-0.2c0-0.1,0-0.2,0-0.2c0-0.2-0.1-0.4-0.3-0.6    C32.6,41.4,32.3,41.4,32,41.4z M62.9,68.2c-1.3,0-2.3-1-2.3-2.3V44.5c0-2.1,0.7-3.9,2.2-5.4c1.5-1.5,3.4-2.3,5.5-2.3h14.8    c1.3,0,2.3,1,2.3,2.3s-1,2.3-2.3,2.3H68.2c-0.9,0-1.6,0.3-2.2,0.9c-0.6,0.6-0.9,1.3-0.9,2.2v21.4C65.1,67.2,64.1,68.2,62.9,68.2z     M34.3,29.9c-1.6,0-2.9-0.6-4-1.7c-1.1-1.1-1.7-2.5-1.7-4c0-1.5,0.6-2.9,1.7-4c1.1-1.1,2.5-1.7,4-1.7c1.5,0,2.9,0.6,4,1.6    c0,0,0,0,0,0c0.7,0.7,1.2,1.5,1.4,2.4c0.1,0,0.2,0,0.3,0h3.8c0.9,0,1.6-0.3,2.2-0.9c0.6-0.6,0.9-1.3,0.9-2.2V6.8    c0-1.3,1-2.3,2.3-2.3c1.3,0,2.3,1,2.3,2.3v12.7c0,2.1-0.7,3.9-2.2,5.4c-1.5,1.5-3.4,2.3-5.5,2.3h-3.8c-0.3,0-0.5,0-0.8-0.1    c-0.2,0.4-0.5,0.8-0.9,1.2C37.3,29.4,35.9,29.9,34.3,29.9z M34.3,23.1c-0.3,0-0.6,0.1-0.8,0.3c-0.2,0.2-0.3,0.5-0.3,0.8    c0,0.3,0.1,0.5,0.3,0.8c0,0,0,0,0,0c0.2,0.2,0.4,0.3,0.8,0.3c0.3,0,0.6-0.1,0.8-0.3c0.2-0.2,0.2-0.3,0.3-0.5c0,0,0-0.1,0-0.1    c0-0.1,0-0.1,0-0.2c0-0.3-0.1-0.6-0.3-0.8C34.9,23.2,34.7,23.1,34.3,23.1z"/></g></g><text x="0" y="115" fill="#000000" font-size="5px" font-weight="bold" font-family="'Helvetica Neue', Helvetica, Arial-Unicode, Arial, Sans-serif">Created by Cristiano Zoucas</text><text x="0" y="120" fill="#000000" font-size="5px" font-weight="bold" font-family="'Helvetica Neue', Helvetica, Arial-Unicode, Arial, Sans-serif">from the Noun Project</text></svg>